<svg xmlns="http://www.w3.org/2000/svg" viewBox="0 0 404.81 352.42"><defs><style>.cls-1{fill:#333;}</style></defs><title>Asset 3</title><g id="Layer_2" data-name="Layer 2"><g id="Layer_1-2" data-name="Layer 1"><path class="cls-1" d="M200.9,0,0,350.56H62.55L119.61,251l4.74-.1,5.41-.15L165,184.47l36-67.78c23.17,41.84,49.29,92.89,72.46,134.73h14c21.2,36.61,36.74,64.62,57.81,101h59.54Z"/><path class="cls-1" d="M260.83,275.34l-7-.09-6.81-.06-43.65-89.35-43.82,89.94c-6.53,0-10.44.07-16.77.07-8.73,16.38-19.16,32.3-27.95,48.78h57.45c10.12-21.2,20.93-43.47,30.65-63.82,9.59,20.06,20.22,42.28,29.46,61.59h53.25q-6.42-12.13-12.81-24.27Q266.8,286.75,260.83,275.34Zm-58-14.54Zm.06,0Z"/></g></g></svg>